%TF.GenerationSoftware,KiCad,Pcbnew,(5.1.12)-1*%
%TF.CreationDate,2021-11-22T20:58:17+01:00*%
%TF.ProjectId,Adapter-VCNL4010,41646170-7465-4722-9d56-434e4c343031,rev?*%
%TF.SameCoordinates,Original*%
%TF.FileFunction,Legend,Bot*%
%TF.FilePolarity,Positive*%
%FSLAX46Y46*%
G04 Gerber Fmt 4.6, Leading zero omitted, Abs format (unit mm)*
G04 Created by KiCad (PCBNEW (5.1.12)-1) date 2021-11-22 20:58:17*
%MOMM*%
%LPD*%
G01*
G04 APERTURE LIST*
%ADD10C,0.120000*%
%ADD11C,0.150000*%
G04 APERTURE END LIST*
D10*
%TO.C,J2*%
X162620000Y-134680000D02*
X159960000Y-134680000D01*
X162620000Y-129540000D02*
X162620000Y-134680000D01*
X159960000Y-129540000D02*
X159960000Y-134680000D01*
X162620000Y-129540000D02*
X159960000Y-129540000D01*
X162620000Y-128270000D02*
X162620000Y-126940000D01*
X162620000Y-126940000D02*
X161290000Y-126940000D01*
%TO.C,J1*%
X152460000Y-134680000D02*
X149800000Y-134680000D01*
X152460000Y-129540000D02*
X152460000Y-134680000D01*
X149800000Y-129540000D02*
X149800000Y-134680000D01*
X152460000Y-129540000D02*
X149800000Y-129540000D01*
X152460000Y-128270000D02*
X152460000Y-126940000D01*
X152460000Y-126940000D02*
X151130000Y-126940000D01*
%TO.C,R4*%
X154772936Y-134265000D02*
X155227064Y-134265000D01*
X154772936Y-135735000D02*
X155227064Y-135735000D01*
%TO.C,C4*%
X154738748Y-129735000D02*
X155261252Y-129735000D01*
X154738748Y-128265000D02*
X155261252Y-128265000D01*
%TO.C,C3*%
X154738748Y-127735000D02*
X155261252Y-127735000D01*
X154738748Y-126265000D02*
X155261252Y-126265000D01*
%TO.C,C2*%
X155261252Y-131735000D02*
X154738748Y-131735000D01*
X155261252Y-130265000D02*
X154738748Y-130265000D01*
%TO.C,C1*%
X155261252Y-133735000D02*
X154738748Y-133735000D01*
X155261252Y-132265000D02*
X154738748Y-132265000D01*
%TO.C,R4*%
D11*
X158766666Y-135452380D02*
X159100000Y-134976190D01*
X159338095Y-135452380D02*
X159338095Y-134452380D01*
X158957142Y-134452380D01*
X158861904Y-134500000D01*
X158814285Y-134547619D01*
X158766666Y-134642857D01*
X158766666Y-134785714D01*
X158814285Y-134880952D01*
X158861904Y-134928571D01*
X158957142Y-134976190D01*
X159338095Y-134976190D01*
X157909523Y-134785714D02*
X157909523Y-135452380D01*
X158147619Y-134404761D02*
X158385714Y-135119047D01*
X157766666Y-135119047D01*
%TO.C,C4*%
X158766666Y-129357142D02*
X158814285Y-129404761D01*
X158957142Y-129452380D01*
X159052380Y-129452380D01*
X159195238Y-129404761D01*
X159290476Y-129309523D01*
X159338095Y-129214285D01*
X159385714Y-129023809D01*
X159385714Y-128880952D01*
X159338095Y-128690476D01*
X159290476Y-128595238D01*
X159195238Y-128500000D01*
X159052380Y-128452380D01*
X158957142Y-128452380D01*
X158814285Y-128500000D01*
X158766666Y-128547619D01*
X157909523Y-128785714D02*
X157909523Y-129452380D01*
X158147619Y-128404761D02*
X158385714Y-129119047D01*
X157766666Y-129119047D01*
%TO.C,C3*%
X158766666Y-127357142D02*
X158814285Y-127404761D01*
X158957142Y-127452380D01*
X159052380Y-127452380D01*
X159195238Y-127404761D01*
X159290476Y-127309523D01*
X159338095Y-127214285D01*
X159385714Y-127023809D01*
X159385714Y-126880952D01*
X159338095Y-126690476D01*
X159290476Y-126595238D01*
X159195238Y-126500000D01*
X159052380Y-126452380D01*
X158957142Y-126452380D01*
X158814285Y-126500000D01*
X158766666Y-126547619D01*
X158433333Y-126452380D02*
X157814285Y-126452380D01*
X158147619Y-126833333D01*
X158004761Y-126833333D01*
X157909523Y-126880952D01*
X157861904Y-126928571D01*
X157814285Y-127023809D01*
X157814285Y-127261904D01*
X157861904Y-127357142D01*
X157909523Y-127404761D01*
X158004761Y-127452380D01*
X158290476Y-127452380D01*
X158385714Y-127404761D01*
X158433333Y-127357142D01*
%TO.C,C2*%
X158766666Y-131357142D02*
X158814285Y-131404761D01*
X158957142Y-131452380D01*
X159052380Y-131452380D01*
X159195238Y-131404761D01*
X159290476Y-131309523D01*
X159338095Y-131214285D01*
X159385714Y-131023809D01*
X159385714Y-130880952D01*
X159338095Y-130690476D01*
X159290476Y-130595238D01*
X159195238Y-130500000D01*
X159052380Y-130452380D01*
X158957142Y-130452380D01*
X158814285Y-130500000D01*
X158766666Y-130547619D01*
X158385714Y-130547619D02*
X158338095Y-130500000D01*
X158242857Y-130452380D01*
X158004761Y-130452380D01*
X157909523Y-130500000D01*
X157861904Y-130547619D01*
X157814285Y-130642857D01*
X157814285Y-130738095D01*
X157861904Y-130880952D01*
X158433333Y-131452380D01*
X157814285Y-131452380D01*
%TO.C,C1*%
X158766666Y-133357142D02*
X158814285Y-133404761D01*
X158957142Y-133452380D01*
X159052380Y-133452380D01*
X159195238Y-133404761D01*
X159290476Y-133309523D01*
X159338095Y-133214285D01*
X159385714Y-133023809D01*
X159385714Y-132880952D01*
X159338095Y-132690476D01*
X159290476Y-132595238D01*
X159195238Y-132500000D01*
X159052380Y-132452380D01*
X158957142Y-132452380D01*
X158814285Y-132500000D01*
X158766666Y-132547619D01*
X157814285Y-133452380D02*
X158385714Y-133452380D01*
X158100000Y-133452380D02*
X158100000Y-132452380D01*
X158195238Y-132595238D01*
X158290476Y-132690476D01*
X158385714Y-132738095D01*
%TD*%
M02*
